# xmcd
#
# Track frame offsets: 
#        150
#        12931
#        25478
#        40699
#        56717
#        71362
#        86215
#        100288
#        117753
#        133740
#        155760
#        168279
#        186119
#        196033
#        210996
#        226026
#
# Disc length: 3132 seconds
#
# Revision: 0
# Processed by: cddbd v1.5.2PL0 Copyright (c) Steve Scherf et al.
# Submitted via: ExactAudioCopy v0.99pb3
#
DISCID=ce0c3a10
DTITLE=Hank and Anne Neufeld - Onse Basta Plautdietsche Leida No. 2
DYEAR=2005
DGENRE=Gospel
TTITLE0=Meen Gott En Ek
TTITLE1=Zie Dot To Jesus
TTITLE2=En Dein Goaden
TTITLE3=Een Dach Up Eemolle
TTITLE4=Bie Dame Krietz
TTITLE5=Eck Vell Fa Jesus Laven
TTITLE6=Come No Dane Heilant
TTITLE7=Een Schiena Dach
TTITLE8=Oba But Dan
TTITLE9=Gott Es Leew
TTITLE10=Leew Deen Noba
TTITLE11=Nusht Aus Dot Blot Fon Jesus
TTITLE12=Ek Name Me Fae
TTITLE13=Uua Go Ek Han
TTITLE14=Gott Zeene Gnode
TTITLE15=Out Zeene Leew
EXTD=
EXTT0=
EXTT1=
EXTT2=
EXTT3=
EXTT4=
EXTT5=
EXTT6=
EXTT7=
EXTT8=
EXTT9=
EXTT10=
EXTT11=
EXTT12=
EXTT13=
EXTT14=
EXTT15=
PLAYORDER=
